<svg width="24.000000" height="24.000000" viewBox="0 0 24 24" fill="none" xmlns="http://www.w3.org/2000/svg" xmlns:xlink="http://www.w3.org/1999/xlink">
	<desc>
			Created with Pixso.
	</desc>
	<defs>
		<clipPath id="clip391_1011">
			<rect id="Preview - close" width="24.000000" height="24.000000" fill="white" fill-opacity="0"/>
		</clipPath>
	</defs>
	<g clip-path="url(#clip391_1011)">
		<path id="path" d="M4.92 9C3.11 10.5 2 12 2 12C2 12 6.47 18 12 18C12.68 18 13.35 17.9 14 17.74M10.01 6.25C10.65 6.09 11.32 6 12 6C17.52 6 22 12 22 12C22 12 20.88 13.5 19.07 15" stroke="white" stroke-opacity="1.000000" stroke-width="1.500000" stroke-linejoin="round" stroke-linecap="round"/>
		<path id="path" d="M10.15 10.31C9.74 10.75 9.5 11.34 9.5 11.99C9.5 13.38 10.61 14.49 12 14.49C12.68 14.49 13.29 14.22 13.75 13.78" stroke="white" stroke-opacity="1.000000" stroke-width="1.500000" stroke-linejoin="round" stroke-linecap="round"/>
		<path id="path" d="M3 3L21 21" stroke="white" stroke-opacity="1.000000" stroke-width="1.500000" stroke-linejoin="round" stroke-linecap="round"/>
	</g>
</svg>
