<svg xmlns="http://www.w3.org/2000/svg"
     xmlns:xlink="http://www.w3.org/1999/xlink"
     x="0px"
     y="0px"
     fill="none"
     viewBox="0 0 24 24"
     height="24"
     width="24">
	<g>
		<path fill="#7e7e9a"
		      d="M379.237,356.616l-128-128c-6.24-6.248-16.384-6.248-22.624,0c-6.248,6.248-6.248,16.376,0,22.624l23.44,23.44 c-53.336,42.08-131.096,38.608-180.296-10.584c-53.024-53.024-53.024-139.312,0-192.336c53.032-53.024,139.304-53.024,192.336,0 c25.688,25.688,39.832,59.84,39.832,96.168c0,8.832,7.168,16,16,16c8.832,0,16-7.168,16-16c0-44.88-17.48-87.064-49.208-118.8 c-65.504-65.504-172.088-65.504-237.584,0c-65.504,65.504-65.504,172.08,0,237.584c32.752,32.76,75.776,49.136,118.792,49.136 c38,0,75.984-12.824,106.912-38.392l81.776,81.776c3.12,3.136,7.216,4.696,11.312,4.696s8.192-1.56,11.312-4.688 C385.485,372.992,385.485,362.864,379.237,356.616z"/>
	</g>
	<g>
		<path fill="#7e7e9a"
		      d="M167.925,247.928c-16.6,0-32.448-4.992-45.808-14.432c-7.224-5.104-17.2-3.376-22.304,3.84 c-5.096,7.224-3.376,17.208,3.84,22.304c18.792,13.272,41.024,20.288,64.272,20.288c8.832,0,16-7.168,16-16 C183.925,255.096,176.757,247.928,167.925,247.928z"/>
	</g>
	<g>
		<path fill="#7e7e9a"
		      d="M111.317,88.688c-6.248-6.24-16.376-6.248-22.632,0c-21.12,21.136-32.76,49.28-32.76,79.24 c0,16.616,3.52,32.568,10.472,47.416c2.72,5.816,8.488,9.224,14.504,9.224c2.272,0,4.576-0.488,6.768-1.512 c8-3.744,11.464-13.264,7.712-21.272c-4.952-10.568-7.456-21.96-7.456-33.856c0-21.416,8.312-41.52,23.392-56.608 C117.565,105.072,117.565,94.936,111.317,88.688z"/>
	</g>
</svg>