<svg width="24.000000" height="24.000000" viewBox="0 0 24 24" fill="none" xmlns="http://www.w3.org/2000/svg" xmlns:xlink="http://www.w3.org/1999/xlink">
	<defs>
		<clipPath id="clip544_627">
			<rect id="Category" width="24.000000" height="24.000000" fill="white" fill-opacity="0"/>
		</clipPath>
	</defs>
	<g clip-path="url(#clip544_627)">
		<path id="path" d="M5.5 11C0.97 11 0 10.02 0 5.5C0 0.97 0.97 0 5.5 0C10.02 0 11 0.97 11 5.5C11 10.02 10.02 11 5.5 11ZM2.17 7.83C2.06 7.32 2 6.58 2 5.5C2 4.41 2.06 3.67 2.17 3.16C2.28 2.67 2.41 2.51 2.46 2.46C2.51 2.41 2.67 2.28 3.16 2.17C3.67 2.06 4.41 2 5.5 2C6.58 2 7.32 2.06 7.83 2.17C8.32 2.28 8.48 2.41 8.53 2.46C8.58 2.51 8.71 2.67 8.82 3.16C8.93 3.67 9 4.41 9 5.5C9 6.58 8.93 7.32 8.82 7.83C8.71 8.32 8.58 8.48 8.53 8.53C8.48 8.58 8.32 8.71 7.83 8.82C7.32 8.93 6.58 9 5.5 9C4.41 9 3.67 8.93 3.16 8.82C2.67 8.71 2.51 8.58 2.46 8.53C2.41 8.48 2.28 8.32 2.17 7.83Z" fill="#7E7E9A" fill-opacity="1.000000" fill-rule="evenodd"/>
		<path id="path" d="M5.5 24C0.97 24 0 23.02 0 18.5C0 13.97 0.97 13 5.5 13C10.02 13 11 13.97 11 18.5C11 23.02 10.02 24 5.5 24ZM2.17 20.83C2.06 20.32 2 19.58 2 18.5C2 17.41 2.06 16.67 2.17 16.16C2.28 15.67 2.41 15.51 2.46 15.46C2.51 15.41 2.67 15.28 3.16 15.17C3.67 15.06 4.41 15 5.5 15C6.58 15 7.32 15.06 7.83 15.17C8.32 15.28 8.48 15.41 8.53 15.46C8.58 15.51 8.71 15.67 8.82 16.16C8.93 16.67 9 17.41 9 18.5C9 19.58 8.93 20.32 8.82 20.83C8.71 21.32 8.58 21.48 8.53 21.53C8.48 21.58 8.32 21.71 7.83 21.82C7.32 21.93 6.58 22 5.5 22C4.41 22 3.67 21.93 3.16 21.82C2.67 21.71 2.51 21.58 2.46 21.53C2.41 21.48 2.28 21.32 2.17 20.83Z" fill="#7E7E9A" fill-opacity="1.000000" fill-rule="evenodd"/>
		<path id="path" d="M13 18.5C13 23.02 13.97 24 18.5 24C23.02 24 24 23.02 24 18.5C24 13.97 23.02 13 18.5 13C13.97 13 13 13.97 13 18.5ZM15 18.5C15 19.58 15.06 20.32 15.17 20.83C15.28 21.32 15.41 21.48 15.46 21.53C15.51 21.58 15.67 21.71 16.16 21.82C16.67 21.93 17.41 22 18.5 22C19.58 22 20.32 21.93 20.83 21.82C21.32 21.71 21.48 21.58 21.53 21.53C21.58 21.48 21.71 21.32 21.82 20.83C21.93 20.32 22 19.58 22 18.5C22 17.41 21.93 16.67 21.82 16.16C21.71 15.67 21.58 15.51 21.53 15.46C21.48 15.41 21.32 15.28 20.83 15.17C20.32 15.06 19.58 15 18.5 15C17.41 15 16.67 15.06 16.16 15.17C15.67 15.28 15.51 15.41 15.46 15.46C15.41 15.51 15.28 15.67 15.17 16.16C15.06 16.67 15 17.41 15 18.5Z" fill="#7E7E9A" fill-opacity="1.000000" fill-rule="evenodd"/>
		<path id="path" d="M19.5 2C19.5 1.44 19.05 1 18.5 1C17.94 1 17.5 1.44 17.5 2L17.5 4.5L15 4.5C14.44 4.5 14 4.94 14 5.5C14 6.05 14.44 6.49 15 6.49L17.5 6.49L17.5 9C17.5 9.55 17.94 10 18.5 10C19.05 10 19.5 9.55 19.5 9L19.5 6.5L22 6.5C22.55 6.5 23 6.05 23 5.5C23 4.94 22.55 4.5 22 4.5L19.5 4.5L19.5 2Z" fill="#7E7E9A" fill-opacity="1.000000" fill-rule="nonzero"/>
	</g>
</svg>