<svg width="30.000000" height="30.000000" viewBox="0 0 30 30" fill="none" xmlns="http://www.w3.org/2000/svg" xmlns:xlink="http://www.w3.org/1999/xlink">
	<desc>
			Created with Pixso.
	</desc>
	<defs>
		<clipPath id="clip255_983">
			<rect id="ConfirmEditBtn" rx="10.000000" width="30.000000" height="30.000000" fill="white" fill-opacity="0"/>
		</clipPath>
	</defs>
	<rect id="ConfirmEditBtn" rx="10.000000" width="30.000000" height="30.000000" fill="#00B712" fill-opacity="1.000000"/>
	<g clip-path="url(#clip255_983)">
		<path id="path" d="M12.51 15.95L12.51 20.51" stroke="#FFFFFF" stroke-opacity="1.000000" stroke-width="1.500000" stroke-linejoin="round" stroke-linecap="round"/>
		<path id="path" d="M7.65 13.84C7.77 13.49 7.95 13.17 8.18 12.9C8.41 12.63 8.7 12.41 9.01 12.26C9.32 12.11 9.66 12.04 10 12.04C10.34 12.04 10.67 12.11 10.98 12.26C11.3 12.41 11.58 12.63 11.81 12.9C12.05 13.17 12.23 13.49 12.34 13.84C12.46 14.2 12.51 14.57 12.49 14.94L12.49 19.59C12.51 19.96 12.46 20.34 12.34 20.69C12.23 21.04 12.05 21.36 11.81 21.63C11.58 21.91 11.3 22.12 10.98 22.27C10.67 22.42 10.34 22.5 10 22.5C9.66 22.5 9.32 22.42 9.01 22.27C8.7 22.12 8.41 21.91 8.18 21.63C7.95 21.36 7.77 21.04 7.65 20.69C7.53 20.34 7.48 19.96 7.5 19.59L7.5 14.94C7.48 14.57 7.53 14.2 7.65 13.84Z" stroke="#FFFFFF" stroke-opacity="1.000000" stroke-width="1.500000" stroke-linejoin="round"/>
		<path id="path" d="M12.51 19.59C12.5 19.95 12.57 20.31 12.69 20.65C12.82 20.98 13 21.29 13.23 21.55C13.46 21.81 13.74 22.01 14.04 22.15C14.35 22.29 14.67 22.37 15 22.37L18.09 22.37C18.8 22.37 19.5 22.11 20.08 21.63C20.65 21.16 21.07 20.49 21.28 19.73L22.4 15.54C22.49 15.26 22.52 14.96 22.48 14.67C22.44 14.38 22.34 14.1 22.19 13.86C22.04 13.61 21.83 13.41 21.6 13.28C21.36 13.14 21.09 13.07 20.83 13.06L16.69 13.06L16.69 8.71C16.69 8.55 16.67 8.39 16.61 8.25C16.56 8.1 16.48 7.97 16.38 7.85C16.28 7.74 16.16 7.65 16.02 7.59C15.89 7.53 15.75 7.5 15.61 7.5C15.37 7.5 15.14 7.58 14.95 7.74C14.77 7.9 14.63 8.12 14.57 8.37L12.51 15.93" stroke="#FFFFFF" stroke-opacity="1.000000" stroke-width="1.500000" stroke-linejoin="round" stroke-linecap="round"/>
	</g>
</svg>
