<svg width="23.500977" height="23.500000" viewBox="0 0 23.501 23.5" fill="none" xmlns="http://www.w3.org/2000/svg" xmlns:xlink="http://www.w3.org/1999/xlink">
	<path id="path" d="M8.1 13.15L8.1 19.84" stroke="#FFFFFF" stroke-opacity="1.000000" stroke-width="1.500000" stroke-linejoin="round" stroke-linecap="round"/>
	<path id="path" d="M0.97 10.06C1.14 9.54 1.41 9.07 1.75 8.67C2.09 8.27 2.51 7.95 2.96 7.74C3.42 7.52 3.91 7.41 4.41 7.41C4.91 7.41 5.41 7.52 5.86 7.74C6.32 7.95 6.73 8.27 7.08 8.67C7.42 9.07 7.69 9.54 7.86 10.06C8.03 10.57 8.1 11.12 8.08 11.67L8.08 18.48C8.1 19.03 8.03 19.58 7.86 20.1C7.69 20.61 7.42 21.08 7.08 21.48C6.73 21.88 6.32 22.2 5.86 22.42C5.41 22.63 4.91 22.75 4.41 22.75C3.91 22.75 3.42 22.63 2.96 22.42C2.51 22.2 2.09 21.88 1.75 21.48C1.41 21.08 1.14 20.61 0.97 20.1C0.8 19.58 0.72 19.03 0.75 18.48L0.75 11.67C0.72 11.12 0.8 10.57 0.97 10.06Z" stroke="#FFFFFF" stroke-opacity="1.000000" stroke-width="1.500000" stroke-linejoin="round"/>
	<path id="path" d="M8.1 18.48C8.09 19.02 8.19 19.54 8.37 20.04C8.55 20.53 8.82 20.98 9.16 21.36C9.5 21.73 9.9 22.04 10.35 22.24C10.79 22.45 11.27 22.56 11.75 22.56L16.28 22.56C17.33 22.56 18.36 22.18 19.2 21.48C20.05 20.79 20.66 19.8 20.96 18.69L22.6 12.54C22.74 12.13 22.78 11.7 22.72 11.27C22.67 10.84 22.52 10.43 22.3 10.07C22.07 9.72 21.77 9.43 21.43 9.23C21.08 9.02 20.69 8.92 20.3 8.91L14.24 8.91L14.24 2.52C14.24 2.29 14.2 2.06 14.12 1.85C14.04 1.63 13.92 1.44 13.77 1.27C13.63 1.11 13.45 0.97 13.26 0.88C13.06 0.79 12.85 0.75 12.64 0.75C12.3 0.75 11.96 0.87 11.68 1.1C11.41 1.34 11.21 1.66 11.12 2.03L8.1 13.11" stroke="#FFFFFF" stroke-opacity="1.000000" stroke-width="1.500000" stroke-linejoin="round" stroke-linecap="round"/>
</svg>