<svg width="30.000000" height="30.000000" viewBox="0 0 30 30" fill="none" xmlns="http://www.w3.org/2000/svg" xmlns:xlink="http://www.w3.org/1999/xlink">
	<desc>
			Created with Pixso.
	</desc>
	<defs>
		<clipPath id="clip243_191">
			<rect id="DeleteBtn" rx="10.000000" width="30.000000" height="30.000000" fill="white" fill-opacity="0"/>
		</clipPath>
	</defs>
	<rect id="DeleteBtn" rx="10.000000" width="30.000000" height="30.000000" fill="#FD3535" fill-opacity="1.000000"/>
	<g clip-path="url(#clip243_191)">
		<path id="path" d="M7.5 11.39C12.34 9.83 17.65 9.83 22.5 11.39" stroke="#FFFFFF" stroke-opacity="1.000000" stroke-width="1.500000" stroke-linejoin="round" stroke-linecap="round"/>
		<path id="path" d="M11.67 10.46C11.67 9.67 12.02 8.92 12.65 8.36C13.27 7.81 14.12 7.5 15 7.5C15.89 7.5 16.74 7.81 17.36 8.36C17.99 8.92 18.34 9.67 18.34 10.46" stroke="#FFFFFF" stroke-opacity="1.000000" stroke-width="1.500000" stroke-linejoin="round" stroke-linecap="round"/>
		<path id="path" d="M15 15.84L15 19.54" stroke="#FFFFFF" stroke-opacity="1.000000" stroke-width="1.500000" stroke-linejoin="round" stroke-linecap="round"/>
		<path id="path" d="M20.83 13.61L20.27 19.54C20.18 20.33 19.76 21.08 19.1 21.62C18.43 22.17 17.57 22.48 16.66 22.5L13.33 22.5C12.42 22.48 11.56 22.17 10.89 21.62C10.23 21.08 9.81 20.33 9.72 19.54L9.16 13.61" stroke="#FFFFFF" stroke-opacity="1.000000" stroke-width="1.500000" stroke-linejoin="round" stroke-linecap="round"/>
	</g>
</svg>
