<svg width="23.502808" height="23.500000" viewBox="0 0 23.5028 23.5" fill="none" xmlns="http://www.w3.org/2000/svg" xmlns:xlink="http://www.w3.org/1999/xlink">
	<path id="path" d="M0.75 6.46C7.85 4.17 15.64 4.17 22.75 6.46" stroke="#FFFFFF" stroke-opacity="1.000000" stroke-width="1.500000" stroke-linejoin="round" stroke-linecap="round"/>
	<path id="path" d="M6.87 5.09C6.87 3.93 7.38 2.83 8.3 2.02C9.22 1.2 10.46 0.75 11.76 0.75C13.05 0.75 14.3 1.2 15.22 2.02C16.13 2.83 16.65 3.93 16.65 5.09" stroke="#FFFFFF" stroke-opacity="1.000000" stroke-width="1.500000" stroke-linejoin="round" stroke-linecap="round"/>
	<path id="path" d="M11.75 12.99L11.75 18.41" stroke="#FFFFFF" stroke-opacity="1.000000" stroke-width="1.500000" stroke-linejoin="round" stroke-linecap="round"/>
	<path id="path" d="M20.3 9.72L19.48 18.4C19.35 19.58 18.74 20.67 17.77 21.47C16.79 22.27 15.52 22.72 14.19 22.75L9.3 22.75C7.97 22.72 6.7 22.27 5.73 21.47C4.75 20.67 4.14 19.58 4.01 18.4L3.19 9.72" stroke="#FFFFFF" stroke-opacity="1.000000" stroke-width="1.500000" stroke-linejoin="round" stroke-linecap="round"/>
</svg>