<svg width="23.500000" height="23.500122" viewBox="0 0 23.5 23.5001" fill="none" xmlns="http://www.w3.org/2000/svg" xmlns:xlink="http://www.w3.org/1999/xlink">
	<desc>
			Created with Pixso.
	</desc>
	<defs/>
	<path id="path" d="M11.39 16.11C10.36 17.15 7.27 17.63 6.58 16.94C5.89 16.25 6.36 13.16 7.4 12.12L17.84 1.66C18.1 1.38 18.41 1.15 18.76 1C19.11 0.84 19.48 0.75 19.86 0.75C20.25 0.74 20.62 0.81 20.98 0.95C21.33 1.09 21.65 1.31 21.92 1.58C22.19 1.85 22.4 2.17 22.54 2.52C22.68 2.88 22.75 3.26 22.74 3.64C22.74 4.02 22.65 4.4 22.49 4.74C22.33 5.09 22.11 5.4 21.82 5.66L11.39 16.11Z" stroke="#FFFFFF" stroke-opacity="1.000000" stroke-width="1.500000" stroke-linejoin="round"/>
	<path id="path" d="M10.59 3.03L5.12 3.03C3.96 3.03 2.85 3.49 2.03 4.31C1.21 5.14 0.75 6.25 0.75 7.41L0.75 18.36C0.75 19.53 1.21 20.64 2.03 21.46C2.85 22.28 3.96 22.75 5.12 22.75L17.15 22.75C19.56 22.75 20.43 20.77 20.43 18.36L20.43 12.89" stroke="#FFFFFF" stroke-opacity="1.000000" stroke-width="1.500000" stroke-linejoin="round" stroke-linecap="round"/>
</svg>
