<svg width="30.000000" height="30.000000" viewBox="0 0 30 30" fill="none" xmlns="http://www.w3.org/2000/svg" xmlns:xlink="http://www.w3.org/1999/xlink">
	<defs>
		<clipPath id="clip243_185">
			<rect id="Frame 284" rx="10.000000" width="30.000000" height="30.000000" fill="white" fill-opacity="0"/>
		</clipPath>
	</defs>
	<rect id="Frame 284" rx="10.000000" width="30.000000" height="30.000000" fill="#1A6FEE" fill-opacity="1.000000"/>
	<g clip-path="url(#clip243_185)">
		<path id="path" d="M14.76 17.97C14.05 18.68 11.95 19.01 11.48 18.54C11.01 18.07 11.33 15.96 12.03 15.25L19.15 8.12C19.33 7.93 19.54 7.77 19.78 7.67C20.02 7.56 20.27 7.5 20.53 7.5C20.79 7.49 21.05 7.54 21.29 7.63C21.53 7.73 21.75 7.88 21.93 8.06C22.12 8.25 22.26 8.47 22.36 8.71C22.45 8.95 22.5 9.21 22.49 9.47C22.49 9.73 22.43 9.98 22.32 10.22C22.21 10.46 22.06 10.67 21.87 10.85L14.76 17.97Z" stroke="#FFFFFF" stroke-opacity="1.000000" stroke-width="1.500000" stroke-linejoin="round"/>
		<path id="path" d="M14.2 9.05L10.48 9.05C9.69 9.05 8.93 9.37 8.37 9.93C7.81 10.49 7.5 11.25 7.5 12.04L7.5 19.51C7.5 20.3 7.81 21.06 8.37 21.62C8.93 22.18 9.69 22.5 10.48 22.5L18.68 22.5C20.32 22.5 20.91 21.15 20.91 19.51L20.91 15.77" stroke="#FFFFFF" stroke-opacity="1.000000" stroke-width="1.500000" stroke-linejoin="round" stroke-linecap="round"/>
	</g>
</svg>
