<svg width="23.500977" height="23.500000" viewBox="0 0 23.501 23.5" fill="none" xmlns="http://www.w3.org/2000/svg" xmlns:xlink="http://www.w3.org/1999/xlink">
	<path id="path" d="M8.08 3.66L8.08 10.36" stroke="#FFFFFF" stroke-opacity="1.000000" stroke-width="1.500000" stroke-linejoin="round" stroke-linecap="round"/>
	<path id="path" d="M8.08 10.36L11.1 21.46C11.2 21.83 11.4 22.15 11.67 22.39C11.95 22.62 12.29 22.74 12.63 22.75C12.84 22.74 13.05 22.7 13.25 22.61C13.44 22.52 13.62 22.38 13.76 22.22C13.91 22.05 14.03 21.86 14.11 21.64C14.19 21.43 14.23 21.2 14.23 20.96L14.23 14.56" stroke="#FFFFFF" stroke-opacity="1.000000" stroke-width="1.500000" stroke-linejoin="round" stroke-linecap="round"/>
	<path id="path" d="M0.97 13.45C1.14 13.97 1.41 14.44 1.75 14.84C2.09 15.24 2.51 15.56 2.97 15.78C3.42 15.99 3.92 16.11 4.42 16.11C4.92 16.11 5.41 15.99 5.87 15.78C6.33 15.56 6.74 15.24 7.08 14.84C7.43 14.44 7.69 13.97 7.86 13.45C8.04 12.94 8.11 12.39 8.08 11.84L8.08 5.01C8.11 4.46 8.04 3.92 7.86 3.4C7.69 2.88 7.43 2.41 7.08 2.01C6.74 1.61 6.33 1.29 5.87 1.07C5.41 0.86 4.92 0.75 4.42 0.75C3.92 0.75 3.42 0.86 2.97 1.07C2.51 1.29 2.09 1.61 1.75 2.01C1.41 2.41 1.14 2.88 0.97 3.4C0.8 3.92 0.72 4.46 0.75 5.01L0.75 11.84C0.72 12.39 0.8 12.94 0.97 13.45Z" stroke="#FFFFFF" stroke-opacity="1.000000" stroke-width="1.500000" stroke-linejoin="round"/>
	<path id="path" d="M8.08 5.01C8.08 4.48 8.17 3.95 8.35 3.46C8.54 2.96 8.8 2.52 9.14 2.14C9.48 1.76 9.89 1.46 10.33 1.25C10.78 1.04 11.26 0.93 11.74 0.93L16.27 0.93C17.33 0.93 18.36 1.31 19.2 2.01C20.04 2.71 20.66 3.69 20.95 4.81L22.6 10.97C22.73 11.37 22.78 11.81 22.72 12.24C22.67 12.67 22.52 13.08 22.3 13.44C22.07 13.79 21.77 14.08 21.42 14.29C21.08 14.49 20.69 14.6 20.3 14.6L14.25 14.6" stroke="#FFFFFF" stroke-opacity="1.000000" stroke-width="1.500000" stroke-linejoin="round" stroke-linecap="round"/>
</svg>