<svg width="30.000000" height="30.000000" viewBox="0 0 30 30" fill="none" xmlns="http://www.w3.org/2000/svg" xmlns:xlink="http://www.w3.org/1999/xlink">
	<desc>
			Created with Pixso.
	</desc>
	<defs>
		<clipPath id="clip255_989">
			<rect id="RejectEditBtn" rx="10.000000" width="30.000000" height="30.000000" fill="white" fill-opacity="0"/>
		</clipPath>
	</defs>
	<rect id="RejectEditBtn" rx="10.000000" width="30.000000" height="30.000000" fill="#FD3535" fill-opacity="1.000000"/>
	<g clip-path="url(#clip255_989)">
		<path id="path" d="M12.5 9.48L12.5 14.05" stroke="#FFFFFF" stroke-opacity="1.000000" stroke-width="1.500000" stroke-linejoin="round" stroke-linecap="round"/>
		<path id="path" d="M12.5 14.05L14.56 21.62C14.62 21.87 14.76 22.09 14.95 22.25C15.13 22.41 15.36 22.49 15.6 22.5C15.74 22.49 15.89 22.46 16.02 22.4C16.15 22.34 16.27 22.25 16.37 22.14C16.47 22.02 16.55 21.89 16.61 21.74C16.66 21.6 16.69 21.44 16.69 21.28L16.69 16.92" stroke="#FFFFFF" stroke-opacity="1.000000" stroke-width="1.500000" stroke-linejoin="round" stroke-linecap="round"/>
		<path id="path" d="M7.65 16.16C7.77 16.51 7.95 16.83 8.18 17.11C8.41 17.38 8.7 17.6 9.01 17.74C9.32 17.89 9.66 17.97 10 17.97C10.34 17.97 10.68 17.89 10.99 17.74C11.3 17.6 11.58 17.38 11.82 17.11C12.05 16.83 12.23 16.51 12.35 16.16C12.47 15.81 12.52 15.43 12.5 15.06L12.5 10.41C12.52 10.03 12.47 9.66 12.35 9.3C12.23 8.95 12.05 8.63 11.82 8.36C11.58 8.09 11.3 7.87 10.99 7.72C10.68 7.57 10.34 7.5 10 7.5C9.66 7.5 9.32 7.57 9.01 7.72C8.7 7.87 8.41 8.09 8.18 8.36C7.95 8.63 7.77 8.95 7.65 9.3C7.53 9.66 7.48 10.03 7.5 10.41L7.5 15.06C7.48 15.43 7.53 15.81 7.65 16.16Z" stroke="#FFFFFF" stroke-opacity="1.000000" stroke-width="1.500000" stroke-linejoin="round"/>
		<path id="path" d="M12.5 10.41C12.5 10.04 12.56 9.68 12.68 9.35C12.81 9.01 12.99 8.7 13.22 8.44C13.45 8.19 13.73 7.98 14.03 7.84C14.34 7.7 14.66 7.62 14.99 7.62L18.08 7.62C18.8 7.62 19.5 7.88 20.08 8.36C20.65 8.83 21.07 9.5 21.27 10.27L22.4 14.46C22.49 14.74 22.52 15.04 22.48 15.33C22.44 15.63 22.34 15.91 22.19 16.15C22.04 16.39 21.83 16.59 21.59 16.73C21.36 16.87 21.09 16.94 20.82 16.94L16.7 16.94" stroke="#FFFFFF" stroke-opacity="1.000000" stroke-width="1.500000" stroke-linejoin="round" stroke-linecap="round"/>
	</g>
</svg>
